<?xml version="1.0" standalone="no"?>
<!DOCTYPE svg PUBLIC "-//W3C//DTD SVG 20010904//EN"
 "http://www.w3.org/TR/2001/REC-SVG-20010904/DTD/svg10.dtd">
<svg version="1.0" xmlns="http://www.w3.org/2000/svg"
 width="1024.000000pt" height="1024.000000pt" viewBox="0 0 1024.000000 1024.000000"
 preserveAspectRatio="xMidYMid meet">
<metadata>
Created by potrace 1.11, written by Peter Selinger 2001-2013
</metadata>
<g transform="translate(0.000000,1024.000000) scale(0.100000,-0.100000)"
fill="#000000" stroke="none">
<path d="M3653 8694 l-1478 -1493 -1087 -1 -1088 0 0 -1930 0 -1930 949 0 949
0 1613 -1630 c887 -897 1616 -1630 1620 -1630 4 0 734 733 1621 1630 l1613
1630 938 0 937 0 0 1930 0 1930 -1077 1 -1078 1 -970 982 c-533 539 -1198
1211 -1477 1492 l-508 512 -1477 -1494z m1469 409 c375 -895 554 -1334 684
-1678 l83 -220 -706 -3 c-388 -1 -708 0 -710 2 -5 5 591 2006 598 2006 4 0 27
-48 51 -107z m-2842 -2988 l0 -165 -470 0 -470 0 0 -230 0 -230 405 0 405 0 0
-165 0 -165 -405 0 -405 0 -2 -412 -3 -413 -195 0 -195 0 -3 973 -2 972 670 0
670 0 0 -165z m1650 0 l0 -165 -467 -2 -468 -3 0 -225 0 -225 408 -3 407 -2 0
-165 0 -165 -410 0 -410 0 0 -415 0 -415 -195 0 -195 0 0 975 0 975 665 0 665
0 0 -165z m1465 141 c325 -75 486 -395 342 -681 -33 -66 -126 -164 -175 -184
-42 -17 -40 -25 6 -39 55 -17 150 -81 200 -136 90 -98 130 -239 111 -391 -23
-187 -138 -354 -294 -426 -115 -54 -168 -59 -772 -66 l-553 -6 0 977 0 978
533 -5 c442 -4 544 -7 602 -21z m2265 -141 l0 -165 -522 -2 -523 -3 -3 -212
-2 -213 490 0 490 0 0 -165 0 -165 -487 -2 -488 -3 0 -260 0 -260 543 -3 542
-2 -2 -163 -3 -162 -737 -3 -738 -2 0 975 0 975 720 0 720 0 0 -165z m789
-566 c68 -105 127 -187 131 -182 4 4 62 90 130 191 l123 182 220 0 219 0 -24
-32 c-51 -68 -448 -628 -448 -633 0 -2 113 -165 251 -362 138 -197 254 -364
256 -371 4 -10 -42 -12 -223 -10 l-227 3 -137 210 c-76 115 -141 210 -146 212
-5 1 -72 -94 -149 -212 l-140 -215 -219 0 -218 0 14 23 c9 12 122 175 252 361
135 194 235 345 232 353 -5 12 -384 546 -454 641 l-24 32 229 0 229 0 123
-191z m-2483 -2331 c-125 -354 -808 -1997 -833 -2005 -4 -2 -33 82 -64 185
-113 374 -582 1917 -586 1930 -4 9 152 12 761 12 l766 0 -44 -122z"/>
<path d="M4658 5955 c-5 -5 -8 -107 -8 -227 l0 -218 273 0 c320 0 356 6 423
74 110 110 65 308 -78 351 -56 16 -597 34 -610 20z"/>
<path d="M4652 4923 l3 -258 300 1 c206 0 314 5 345 13 64 18 117 57 148 110
23 40 27 57 27 126 0 92 -21 141 -79 193 -67 59 -108 65 -444 70 l-302 4 2
-259z"/>
</g>
</svg>
